<svg width="82" height="82" viewBox="0 0 82 82" fill="none" xmlns="http://www.w3.org/2000/svg">
<rect width="82" height="82" rx="8.75909" fill="#D52B1E"/>
<path d="M27.1577 44.8977H31.8622L34.2273 47.9403L36.554 50.6506L40.9389 56.1477H35.7741L32.7571 52.4403L31.2102 50.2415L27.1577 44.8977ZM41.3352 40.9091C41.3352 43.7642 40.794 46.1932 39.7116 48.196C38.6378 50.1989 37.1719 51.7287 35.3139 52.7855C33.4645 53.8338 31.3849 54.358 29.0753 54.358C26.7486 54.358 24.6605 53.8295 22.8111 52.7727C20.9616 51.7159 19.5 50.1861 18.4261 48.1832C17.3523 46.1804 16.8153 43.7557 16.8153 40.9091C16.8153 38.054 17.3523 35.625 18.4261 33.6222C19.5 31.6193 20.9616 30.0937 22.8111 29.0455C24.6605 27.9886 26.7486 27.4602 29.0753 27.4602C31.3849 27.4602 33.4645 27.9886 35.3139 29.0455C37.1719 30.0937 38.6378 31.6193 39.7116 33.6222C40.794 35.625 41.3352 38.054 41.3352 40.9091ZM35.723 40.9091C35.723 39.0597 35.446 37.5 34.892 36.2301C34.3466 34.9602 33.5753 33.9972 32.5781 33.3409C31.581 32.6847 30.4134 32.3565 29.0753 32.3565C27.7372 32.3565 26.5696 32.6847 25.5724 33.3409C24.5753 33.9972 23.7997 34.9602 23.2457 36.2301C22.7003 37.5 22.4276 39.0597 22.4276 40.9091C22.4276 42.7585 22.7003 44.3182 23.2457 45.5881C23.7997 46.858 24.5753 47.821 25.5724 48.4773C26.5696 49.1335 27.7372 49.4616 29.0753 49.4616C30.4134 49.4616 31.581 49.1335 32.5781 48.4773C33.5753 47.821 34.3466 46.858 34.892 45.5881C35.446 44.3182 35.723 42.7585 35.723 40.9091ZM59.6389 35.348C59.5366 34.3168 59.0977 33.5156 58.3221 32.9446C57.5465 32.3736 56.494 32.0881 55.1644 32.0881C54.261 32.0881 53.4982 32.2159 52.8761 32.4716C52.2539 32.7188 51.7766 33.0639 51.4442 33.5071C51.1204 33.9503 50.9585 34.4531 50.9585 35.0156C50.9414 35.4844 51.0394 35.8935 51.2525 36.2429C51.4741 36.5923 51.7766 36.8949 52.1602 37.1506C52.5437 37.3977 52.9869 37.6151 53.4897 37.8026C53.9925 37.9815 54.5295 38.1349 55.1005 38.2628L57.4528 38.8253C58.5948 39.081 59.6431 39.4219 60.5977 39.848C61.5522 40.2741 62.3789 40.7983 63.0778 41.4205C63.7766 42.0426 64.3178 42.7756 64.7014 43.6193C65.0934 44.4631 65.2937 45.4304 65.3022 46.5213C65.2937 48.1236 64.8846 49.5128 64.0749 50.6889C63.2738 51.8565 62.1147 52.7642 60.5977 53.4119C59.0891 54.0511 57.2695 54.3707 55.1389 54.3707C53.0252 54.3707 51.1843 54.0469 49.6161 53.3991C48.0565 52.7514 46.8377 51.7926 45.9599 50.5227C45.0906 49.2443 44.6346 47.6634 44.592 45.7798H49.9485C50.0082 46.6577 50.2596 47.3906 50.7028 47.9787C51.1545 48.5582 51.7553 48.9972 52.5053 49.2955C53.2638 49.5852 54.1204 49.7301 55.0749 49.7301C56.0124 49.7301 56.8263 49.5937 57.5167 49.321C58.2156 49.0483 58.7567 48.669 59.1403 48.1832C59.5238 47.6974 59.7156 47.1392 59.7156 46.5085C59.7156 45.9205 59.5408 45.4261 59.1914 45.0256C58.8505 44.625 58.3477 44.2841 57.6829 44.0028C57.0266 43.7216 56.2212 43.4659 55.2667 43.2358L52.4158 42.5199C50.2085 41.983 48.4656 41.1435 47.1871 40.0014C45.9087 38.8594 45.2738 37.321 45.2823 35.3864C45.2738 33.8011 45.6957 32.4162 46.5479 31.2315C47.4087 30.0469 48.5891 29.1222 50.0891 28.4574C51.5891 27.7926 53.2937 27.4602 55.2028 27.4602C57.146 27.4602 58.842 27.7926 60.2908 28.4574C61.7482 29.1222 62.8817 30.0469 63.6914 31.2315C64.5011 32.4162 64.9187 33.7884 64.9442 35.348H59.6389Z" fill="#FDC62F"/>
</svg>
